<svg xmlns="http://www.w3.org/2000/svg" xmlns:xlink="http://www.w3.org/1999/xlink" viewBox="0 0 65 64" fill="#fff" fill-rule="evenodd" stroke="#000" stroke-linecap="round" stroke-linejoin="round"><use xlink:href="#A" x=".5" y=".5"/><symbol id="A" overflow="visible"><path d="M54.64 58.064L0 0l58.062 54.64a2.42 2.42 0 1 1-3.319 3.526l-.103-.103M46.6 62.17L5.4 17.537l44.623 41.2a2.42 2.42 0 1 1-3.286 3.558l-.137-.136m-8.34.1L10.88 32.62 40.54 60c.656.605.696 1.627.092 2.28s-1.627.696-2.28.092l-.092-.1M61.202 41.75L32.616 10.882l30.866 28.586c.654.606.694 1.628.087 2.28s-1.627.693-2.28.087l-.087-.087m-2.467 8.642l-41.38-44.8 44.8 41.38a2.42 2.42 0 1 1-3.286 3.557l-.136-.136m-29.008 9.457L16.7 45.682l14.166 13.026a.81.81 0 0 1 .05 1.14.81.81 0 0 1-1.141.048l-.048-.048M60.18 31.494L47.155 17.328 61.32 30.353c.328.303.35.813.048 1.14a.81.81 0 0 1-1.141.048l-.048-.048" stroke="none" fill="#de4f4f" fill-rule="nonzero"/></symbol><defs /></svg>